<svg xmlns="http://www.w3.org/2000/svg" version="1.1" xmlns:xlink="http://www.w3.org/1999/xlink" xmlns:svgjs="http://svgjs.dev/svgjs" width="1440" height="560" preserveAspectRatio="none" viewBox="0 0 1440 560"><g mask="url(&quot;#SvgjsMask1000&quot;)" fill="none"><rect width="1440" height="560" x="0" y="0" fill="#0e2a47"></rect><path d="M-56.62 488.16L-56.62 488.16" stroke="#132e65" stroke-width="1.5"></path><path d="M-56.62 488.16L60.57 521.23" stroke="#132e65" stroke-width="1.5"></path><path d="M-56.62 488.16L-108.69 638.79" stroke="#132e65" stroke-width="1.5"></path><path d="M-56.62 488.16L67.2 355.14" stroke="#132e65" stroke-width="1.5"></path><path d="M-56.62 488.16L59.28 672.22" stroke="#132e65" stroke-width="1.5"></path><path d="M-56.62 488.16L235.15 491.22" stroke="#132e65" stroke-width="1.5"></path><path d="M-56.62 488.16L237.91 372.54" stroke="#132e65" stroke-width="1.5"></path><path d="M-108.69 638.79L-108.69 638.79" stroke="#132e65" stroke-width="1.5"></path><path d="M-108.69 638.79L59.28 672.22" stroke="#132e65" stroke-width="1.5"></path><path d="M-108.69 638.79L60.57 521.23" stroke="#132e65" stroke-width="1.5"></path><path d="M67.2 355.14L67.2 355.14" stroke="#132e65" stroke-width="1.5"></path><path d="M67.2 355.14L60.57 521.23" stroke="#132e65" stroke-width="1.5"></path><path d="M67.2 355.14L237.91 372.54" stroke="#132e65" stroke-width="1.5"></path><path d="M67.2 355.14L235.15 491.22" stroke="#132e65" stroke-width="1.5"></path><path d="M67.2 355.14L59.28 672.22" stroke="#132e65" stroke-width="1.5"></path><path d="M67.2 355.14L-108.69 638.79" stroke="#132e65" stroke-width="1.5"></path><path d="M60.57 521.23L60.57 521.23" stroke="#132e65" stroke-width="1.5"></path><path d="M60.57 521.23L59.28 672.22" stroke="#132e65" stroke-width="1.5"></path><path d="M60.57 521.23L235.15 491.22" stroke="#132e65" stroke-width="1.5"></path><path d="M59.28 672.22L59.28 672.22" stroke="#132e65" stroke-width="1.5"></path><path d="M59.28 672.22L200.05 686.42" stroke="#132e65" stroke-width="1.5"></path><path d="M237.91 372.54L237.91 372.54" stroke="#132e65" stroke-width="1.5"></path><path d="M237.91 372.54L235.15 491.22" stroke="#132e65" stroke-width="1.5"></path><path d="M237.91 372.54L409.97 396.23" stroke="#132e65" stroke-width="1.5"></path><path d="M237.91 372.54L60.57 521.23" stroke="#132e65" stroke-width="1.5"></path><path d="M237.91 372.54L536.27 405.81" stroke="#132e65" stroke-width="1.5"></path><path d="M237.91 372.54L200.05 686.42" stroke="#132e65" stroke-width="1.5"></path><path d="M235.15 491.22L235.15 491.22" stroke="#132e65" stroke-width="1.5"></path><path d="M235.15 491.22L200.05 686.42" stroke="#132e65" stroke-width="1.5"></path><path d="M200.05 686.42L200.05 686.42" stroke="#132e65" stroke-width="1.5"></path><path d="M409.97 396.23L409.97 396.23" stroke="#132e65" stroke-width="1.5"></path><path d="M409.97 396.23L536.27 405.81" stroke="#132e65" stroke-width="1.5"></path><path d="M401.46 667.8L401.46 667.8" stroke="#132e65" stroke-width="1.5"></path><path d="M401.46 667.8L529.28 664.86" stroke="#132e65" stroke-width="1.5"></path><path d="M401.46 667.8L200.05 686.42" stroke="#132e65" stroke-width="1.5"></path><path d="M401.46 667.8L235.15 491.22" stroke="#132e65" stroke-width="1.5"></path><path d="M401.46 667.8L656.55 657.59" stroke="#132e65" stroke-width="1.5"></path><path d="M401.46 667.8L409.97 396.23" stroke="#132e65" stroke-width="1.5"></path><path d="M401.46 667.8L536.27 405.81" stroke="#132e65" stroke-width="1.5"></path><path d="M536.27 405.81L536.27 405.81" stroke="#132e65" stroke-width="1.5"></path><path d="M536.27 405.81L696.97 540.65" stroke="#132e65" stroke-width="1.5"></path><path d="M536.27 405.81L683.7 233.41" stroke="#132e65" stroke-width="1.5"></path><path d="M536.27 405.81L529.28 664.86" stroke="#132e65" stroke-width="1.5"></path><path d="M536.27 405.81L789.1 489.47" stroke="#132e65" stroke-width="1.5"></path><path d="M536.27 405.81L806.88 378.06" stroke="#132e65" stroke-width="1.5"></path><path d="M529.28 664.86L529.28 664.86" stroke="#132e65" stroke-width="1.5"></path><path d="M529.28 664.86L656.55 657.59" stroke="#132e65" stroke-width="1.5"></path><path d="M529.28 664.86L696.97 540.65" stroke="#132e65" stroke-width="1.5"></path><path d="M683.7 233.41L683.7 233.41" stroke="#132e65" stroke-width="1.5"></path><path d="M683.7 233.41L822.37 211.83" stroke="#132e65" stroke-width="1.5"></path><path d="M683.7 233.41L806.88 378.06" stroke="#132e65" stroke-width="1.5"></path><path d="M683.7 233.41L859.91 72.36" stroke="#132e65" stroke-width="1.5"></path><path d="M683.7 233.41L789.1 489.47" stroke="#132e65" stroke-width="1.5"></path><path d="M696.97 540.65L696.97 540.65" stroke="#132e65" stroke-width="1.5"></path><path d="M696.97 540.65L789.1 489.47" stroke="#132e65" stroke-width="1.5"></path><path d="M656.55 657.59L656.55 657.59" stroke="#132e65" stroke-width="1.5"></path><path d="M656.55 657.59L696.97 540.65" stroke="#132e65" stroke-width="1.5"></path><path d="M656.55 657.59L848 646.67" stroke="#132e65" stroke-width="1.5"></path><path d="M656.55 657.59L789.1 489.47" stroke="#132e65" stroke-width="1.5"></path><path d="M859.91 72.36L859.91 72.36" stroke="#132e65" stroke-width="1.5"></path><path d="M859.91 72.36L975.45 97.91" stroke="#132e65" stroke-width="1.5"></path><path d="M859.91 72.36L822.37 211.83" stroke="#132e65" stroke-width="1.5"></path><path d="M859.91 72.36L974.78 218.29" stroke="#132e65" stroke-width="1.5"></path><path d="M822.37 211.83L822.37 211.83" stroke="#132e65" stroke-width="1.5"></path><path d="M822.37 211.83L974.78 218.29" stroke="#132e65" stroke-width="1.5"></path><path d="M806.88 378.06L806.88 378.06" stroke="#132e65" stroke-width="1.5"></path><path d="M806.88 378.06L789.1 489.47" stroke="#132e65" stroke-width="1.5"></path><path d="M806.88 378.06L822.37 211.83" stroke="#132e65" stroke-width="1.5"></path><path d="M789.1 489.47L789.1 489.47" stroke="#132e65" stroke-width="1.5"></path><path d="M848 646.67L848 646.67" stroke="#132e65" stroke-width="1.5"></path><path d="M848 646.67L1009.82 654.63" stroke="#132e65" stroke-width="1.5"></path><path d="M848 646.67L789.1 489.47" stroke="#132e65" stroke-width="1.5"></path><path d="M848 646.67L1000.94 543.59" stroke="#132e65" stroke-width="1.5"></path><path d="M848 646.67L696.97 540.65" stroke="#132e65" stroke-width="1.5"></path><path d="M975.45 97.91L975.45 97.91" stroke="#132e65" stroke-width="1.5"></path><path d="M975.45 97.91L974.78 218.29" stroke="#132e65" stroke-width="1.5"></path><path d="M975.45 97.91L1137.78 81.12" stroke="#132e65" stroke-width="1.5"></path><path d="M975.45 97.91L822.37 211.83" stroke="#132e65" stroke-width="1.5"></path><path d="M974.78 218.29L974.78 218.29" stroke="#132e65" stroke-width="1.5"></path><path d="M974.78 218.29L983.52 381.09" stroke="#132e65" stroke-width="1.5"></path><path d="M974.78 218.29L1151.06 234.48" stroke="#132e65" stroke-width="1.5"></path><path d="M974.78 218.29L1137.78 81.12" stroke="#132e65" stroke-width="1.5"></path><path d="M983.52 381.09L983.52 381.09" stroke="#132e65" stroke-width="1.5"></path><path d="M983.52 381.09L1091.25 407.72" stroke="#132e65" stroke-width="1.5"></path><path d="M983.52 381.09L1000.94 543.59" stroke="#132e65" stroke-width="1.5"></path><path d="M1000.94 543.59L1000.94 543.59" stroke="#132e65" stroke-width="1.5"></path><path d="M1000.94 543.59L1009.82 654.63" stroke="#132e65" stroke-width="1.5"></path><path d="M1000.94 543.59L1122 547.97" stroke="#132e65" stroke-width="1.5"></path><path d="M1000.94 543.59L1091.25 407.72" stroke="#132e65" stroke-width="1.5"></path><path d="M1000.94 543.59L1119.92 663.34" stroke="#132e65" stroke-width="1.5"></path><path d="M1009.82 654.63L1009.82 654.63" stroke="#132e65" stroke-width="1.5"></path><path d="M1009.82 654.63L1119.92 663.34" stroke="#132e65" stroke-width="1.5"></path><path d="M1009.82 654.63L1122 547.97" stroke="#132e65" stroke-width="1.5"></path><path d="M1104.17 -50.68L1104.17 -50.68" stroke="#132e65" stroke-width="1.5"></path><path d="M1104.17 -50.68L1137.78 81.12" stroke="#132e65" stroke-width="1.5"></path><path d="M1104.17 -50.68L1267.35 -108.61" stroke="#132e65" stroke-width="1.5"></path><path d="M1104.17 -50.68L975.45 97.91" stroke="#132e65" stroke-width="1.5"></path><path d="M1104.17 -50.68L859.91 72.36" stroke="#132e65" stroke-width="1.5"></path><path d="M1104.17 -50.68L1151.06 234.48" stroke="#132e65" stroke-width="1.5"></path><path d="M1104.17 -50.68L974.78 218.29" stroke="#132e65" stroke-width="1.5"></path><path d="M1137.78 81.12L1137.78 81.12" stroke="#132e65" stroke-width="1.5"></path><path d="M1137.78 81.12L1151.06 234.48" stroke="#132e65" stroke-width="1.5"></path><path d="M1137.78 81.12L1267.35 -108.61" stroke="#132e65" stroke-width="1.5"></path><path d="M1151.06 234.48L1151.06 234.48" stroke="#132e65" stroke-width="1.5"></path><path d="M1151.06 234.48L1282.86 260.35" stroke="#132e65" stroke-width="1.5"></path><path d="M1091.25 407.72L1091.25 407.72" stroke="#132e65" stroke-width="1.5"></path><path d="M1122 547.97L1122 547.97" stroke="#132e65" stroke-width="1.5"></path><path d="M1122 547.97L1119.92 663.34" stroke="#132e65" stroke-width="1.5"></path><path d="M1122 547.97L1091.25 407.72" stroke="#132e65" stroke-width="1.5"></path><path d="M1122 547.97L1266.97 666.96" stroke="#132e65" stroke-width="1.5"></path><path d="M1119.92 663.34L1119.92 663.34" stroke="#132e65" stroke-width="1.5"></path><path d="M1119.92 663.34L1266.97 666.96" stroke="#132e65" stroke-width="1.5"></path><path d="M1267.35 -108.61L1267.35 -108.61" stroke="#132e65" stroke-width="1.5"></path><path d="M1282.86 260.35L1282.86 260.35" stroke="#132e65" stroke-width="1.5"></path><path d="M1282.86 260.35L1405.88 249.82" stroke="#132e65" stroke-width="1.5"></path><path d="M1243.31 404.35L1243.31 404.35" stroke="#132e65" stroke-width="1.5"></path><path d="M1243.31 404.35L1304.88 502.49" stroke="#132e65" stroke-width="1.5"></path><path d="M1243.31 404.35L1282.86 260.35" stroke="#132e65" stroke-width="1.5"></path><path d="M1243.31 404.35L1091.25 407.72" stroke="#132e65" stroke-width="1.5"></path><path d="M1243.31 404.35L1122 547.97" stroke="#132e65" stroke-width="1.5"></path><path d="M1243.31 404.35L1151.06 234.48" stroke="#132e65" stroke-width="1.5"></path><path d="M1243.31 404.35L1394.79 541.29" stroke="#132e65" stroke-width="1.5"></path><path d="M1304.88 502.49L1304.88 502.49" stroke="#132e65" stroke-width="1.5"></path><path d="M1304.88 502.49L1394.79 541.29" stroke="#132e65" stroke-width="1.5"></path><path d="M1304.88 502.49L1266.97 666.96" stroke="#132e65" stroke-width="1.5"></path><path d="M1304.88 502.49L1450.26 410.72" stroke="#132e65" stroke-width="1.5"></path><path d="M1304.88 502.49L1122 547.97" stroke="#132e65" stroke-width="1.5"></path><path d="M1304.88 502.49L1091.25 407.72" stroke="#132e65" stroke-width="1.5"></path><path d="M1266.97 666.96L1266.97 666.96" stroke="#132e65" stroke-width="1.5"></path><path d="M1266.97 666.96L1394.79 541.29" stroke="#132e65" stroke-width="1.5"></path><path d="M1266.97 666.96L1457.4 712.14" stroke="#132e65" stroke-width="1.5"></path><path d="M1266.97 666.96L1009.82 654.63" stroke="#132e65" stroke-width="1.5"></path><path d="M1433.23 -57.15L1433.23 -57.15" stroke="#132e65" stroke-width="1.5"></path><path d="M1433.23 -57.15L1588.39 -63.34" stroke="#132e65" stroke-width="1.5"></path><path d="M1433.23 -57.15L1561.66 37.81" stroke="#132e65" stroke-width="1.5"></path><path d="M1433.23 -57.15L1432.31 106.61" stroke="#132e65" stroke-width="1.5"></path><path d="M1433.23 -57.15L1267.35 -108.61" stroke="#132e65" stroke-width="1.5"></path><path d="M1432.31 106.61L1432.31 106.61" stroke="#132e65" stroke-width="1.5"></path><path d="M1432.31 106.61L1405.88 249.82" stroke="#132e65" stroke-width="1.5"></path><path d="M1432.31 106.61L1561.66 37.81" stroke="#132e65" stroke-width="1.5"></path><path d="M1432.31 106.61L1282.86 260.35" stroke="#132e65" stroke-width="1.5"></path><path d="M1405.88 249.82L1405.88 249.82" stroke="#132e65" stroke-width="1.5"></path><path d="M1405.88 249.82L1450.26 410.72" stroke="#132e65" stroke-width="1.5"></path><path d="M1405.88 249.82L1602.16 240.65" stroke="#132e65" stroke-width="1.5"></path><path d="M1405.88 249.82L1605.14 350.35" stroke="#132e65" stroke-width="1.5"></path><path d="M1450.26 410.72L1450.26 410.72" stroke="#132e65" stroke-width="1.5"></path><path d="M1450.26 410.72L1394.79 541.29" stroke="#132e65" stroke-width="1.5"></path><path d="M1450.26 410.72L1539.85 538.15" stroke="#132e65" stroke-width="1.5"></path><path d="M1394.79 541.29L1394.79 541.29" stroke="#132e65" stroke-width="1.5"></path><path d="M1394.79 541.29L1539.85 538.15" stroke="#132e65" stroke-width="1.5"></path><path d="M1457.4 712.14L1457.4 712.14" stroke="#132e65" stroke-width="1.5"></path><path d="M1457.4 712.14L1575.76 678.4" stroke="#132e65" stroke-width="1.5"></path><path d="M1457.4 712.14L1394.79 541.29" stroke="#132e65" stroke-width="1.5"></path><path d="M1588.39 -63.34L1588.39 -63.34" stroke="#132e65" stroke-width="1.5"></path><path d="M1588.39 -63.34L1561.66 37.81" stroke="#132e65" stroke-width="1.5"></path><path d="M1588.39 -63.34L1432.31 106.61" stroke="#132e65" stroke-width="1.5"></path><path d="M1561.66 37.81L1561.66 37.81" stroke="#132e65" stroke-width="1.5"></path><path d="M1602.16 240.65L1602.16 240.65" stroke="#132e65" stroke-width="1.5"></path><path d="M1602.16 240.65L1605.14 350.35" stroke="#132e65" stroke-width="1.5"></path><path d="M1605.14 350.35L1605.14 350.35" stroke="#132e65" stroke-width="1.5"></path><path d="M1605.14 350.35L1450.26 410.72" stroke="#132e65" stroke-width="1.5"></path><path d="M1605.14 350.35L1539.85 538.15" stroke="#132e65" stroke-width="1.5"></path><path d="M1539.85 538.15L1539.85 538.15" stroke="#132e65" stroke-width="1.5"></path><path d="M1539.85 538.15L1575.76 678.4" stroke="#132e65" stroke-width="1.5"></path><path d="M1539.85 538.15L1457.4 712.14" stroke="#132e65" stroke-width="1.5"></path><path d="M1539.85 538.15L1304.88 502.49" stroke="#132e65" stroke-width="1.5"></path><path d="M1575.76 678.4L1575.76 678.4" stroke="#132e65" stroke-width="1.5"></path><path d="M1575.76 678.4L1394.79 541.29" stroke="#132e65" stroke-width="1.5"></path><circle r="5" cx="-56.62" cy="488.16" fill="#132e65"></circle><circle r="5" cx="-108.69" cy="638.79" fill="#132e65"></circle><circle r="5" cx="67.2" cy="355.14" fill="#132e65"></circle><circle r="5" cx="60.57" cy="521.23" fill="#132e65"></circle><circle r="5" cx="59.28" cy="672.22" fill="#132e65"></circle><circle r="5" cx="237.91" cy="372.54" fill="#132e65"></circle><circle r="5" cx="235.15" cy="491.22" fill="#132e65"></circle><circle r="5" cx="200.05" cy="686.42" fill="#132e65"></circle><circle r="5" cx="409.97" cy="396.23" fill="#132e65"></circle><circle r="5" cx="401.46" cy="667.8" fill="#132e65"></circle><circle r="5" cx="536.27" cy="405.81" fill="#132e65"></circle><circle r="5" cx="529.28" cy="664.86" fill="#132e65"></circle><circle r="5" cx="683.7" cy="233.41" fill="#132e65"></circle><circle r="5" cx="696.97" cy="540.65" fill="#132e65"></circle><circle r="5" cx="656.55" cy="657.59" fill="#132e65"></circle><circle r="5" cx="859.91" cy="72.36" fill="#132e65"></circle><circle r="5" cx="822.37" cy="211.83" fill="#132e65"></circle><circle r="5" cx="806.88" cy="378.06" fill="#132e65"></circle><circle r="5" cx="789.1" cy="489.47" fill="#132e65"></circle><circle r="5" cx="848" cy="646.67" fill="#132e65"></circle><circle r="5" cx="975.45" cy="97.91" fill="#132e65"></circle><circle r="5" cx="974.78" cy="218.29" fill="#132e65"></circle><circle r="5" cx="983.52" cy="381.09" fill="#132e65"></circle><circle r="5" cx="1000.94" cy="543.59" fill="#132e65"></circle><circle r="5" cx="1009.82" cy="654.63" fill="#132e65"></circle><circle r="5" cx="1104.17" cy="-50.68" fill="#132e65"></circle><circle r="5" cx="1137.78" cy="81.12" fill="#132e65"></circle><circle r="5" cx="1151.06" cy="234.48" fill="#132e65"></circle><circle r="5" cx="1091.25" cy="407.72" fill="#132e65"></circle><circle r="5" cx="1122" cy="547.97" fill="#132e65"></circle><circle r="5" cx="1119.92" cy="663.34" fill="#132e65"></circle><circle r="5" cx="1267.35" cy="-108.61" fill="#132e65"></circle><circle r="5" cx="1282.86" cy="260.35" fill="#132e65"></circle><circle r="5" cx="1243.31" cy="404.35" fill="#132e65"></circle><circle r="5" cx="1304.88" cy="502.49" fill="#132e65"></circle><circle r="5" cx="1266.97" cy="666.96" fill="#132e65"></circle><circle r="5" cx="1433.23" cy="-57.15" fill="#132e65"></circle><circle r="5" cx="1432.31" cy="106.61" fill="#132e65"></circle><circle r="5" cx="1405.88" cy="249.82" fill="#132e65"></circle><circle r="5" cx="1450.26" cy="410.72" fill="#132e65"></circle><circle r="5" cx="1394.79" cy="541.29" fill="#132e65"></circle><circle r="5" cx="1457.4" cy="712.14" fill="#132e65"></circle><circle r="5" cx="1588.39" cy="-63.34" fill="#132e65"></circle><circle r="5" cx="1561.66" cy="37.81" fill="#132e65"></circle><circle r="5" cx="1602.16" cy="240.65" fill="#132e65"></circle><circle r="5" cx="1605.14" cy="350.35" fill="#132e65"></circle><circle r="5" cx="1539.85" cy="538.15" fill="#132e65"></circle><circle r="5" cx="1575.76" cy="678.4" fill="#132e65"></circle><path d="M-62.1 522.2L-62.1 522.2" stroke="hsl(228.5, 77.2%, 51.5%)" stroke-width="1.5"></path><path d="M-62.1 522.2L-89 659.94" stroke="hsl(228.5, 77.2%, 51.5%)" stroke-width="1.5"></path><path d="M-62.1 522.2L76.7 488" stroke="hsl(228.5, 77.2%, 51.5%)" stroke-width="1.5"></path><path d="M-89 659.94L-89 659.94" stroke="hsl(228.5, 77.2%, 51.5%)" stroke-width="1.5"></path><path d="M-89 659.94L74.52 639.93" stroke="hsl(228.5, 77.2%, 51.5%)" stroke-width="1.5"></path><path d="M-89 659.94L76.7 488" stroke="hsl(228.5, 77.2%, 51.5%)" stroke-width="1.5"></path><path d="M-89 659.94L200.64 648.44" stroke="hsl(228.5, 77.2%, 51.5%)" stroke-width="1.5"></path><path d="M74.52 639.93L74.52 639.93" stroke="hsl(228.5, 77.2%, 51.5%)" stroke-width="1.5"></path><path d="M74.52 639.93L200.64 648.44" stroke="hsl(228.5, 77.2%, 51.5%)" stroke-width="1.5"></path><path d="M74.52 639.93L76.7 488" stroke="hsl(228.5, 77.2%, 51.5%)" stroke-width="1.5"></path><path d="M74.52 639.93L-62.1 522.2" stroke="hsl(228.5, 77.2%, 51.5%)" stroke-width="1.5"></path><path d="M74.52 639.93L212.88 489.72" stroke="hsl(228.5, 77.2%, 51.5%)" stroke-width="1.5"></path><path d="M74.52 639.93L363.88 695.81" stroke="hsl(228.5, 77.2%, 51.5%)" stroke-width="1.5"></path><path d="M550.1 399.89L550.1 399.89" stroke="hsl(228.5, 77.2%, 51.5%)" stroke-width="1.5"></path><path d="M550.1 399.89L489.65 496.8" stroke="hsl(228.5, 77.2%, 51.5%)" stroke-width="1.5"></path><path d="M550.1 399.89L670.47 380.35" stroke="hsl(228.5, 77.2%, 51.5%)" stroke-width="1.5"></path><path d="M489.65 496.8L489.65 496.8" stroke="hsl(228.5, 77.2%, 51.5%)" stroke-width="1.5"></path><path d="M489.65 496.8L402.16 519.37" stroke="hsl(228.5, 77.2%, 51.5%)" stroke-width="1.5"></path><path d="M489.65 496.8L489.97 705.17" stroke="hsl(228.5, 77.2%, 51.5%)" stroke-width="1.5"></path><path d="M489.65 496.8L670.47 380.35" stroke="hsl(228.5, 77.2%, 51.5%)" stroke-width="1.5"></path><path d="M489.65 496.8L363.88 695.81" stroke="hsl(228.5, 77.2%, 51.5%)" stroke-width="1.5"></path><path d="M489.65 496.8L656.92 679.32" stroke="hsl(228.5, 77.2%, 51.5%)" stroke-width="1.5"></path><path d="M656.92 679.32L656.92 679.32" stroke="hsl(228.5, 77.2%, 51.5%)" stroke-width="1.5"></path><path d="M656.92 679.32L489.97 705.17" stroke="hsl(228.5, 77.2%, 51.5%)" stroke-width="1.5"></path><path d="M656.92 679.32L825.87 673.9" stroke="hsl(228.5, 77.2%, 51.5%)" stroke-width="1.5"></path><path d="M656.92 679.32L787.57 537.1" stroke="hsl(228.5, 77.2%, 51.5%)" stroke-width="1.5"></path><path d="M656.92 679.32L941.41 645.64" stroke="hsl(228.5, 77.2%, 51.5%)" stroke-width="1.5"></path><path d="M1411.61 521.48L1411.61 521.48" stroke="hsl(228.5, 77.2%, 51.5%)" stroke-width="1.5"></path><path d="M1411.61 521.48L1435.6 380.91" stroke="hsl(228.5, 77.2%, 51.5%)" stroke-width="1.5"></path><path d="M1411.61 521.48L1410.07 673.73" stroke="hsl(228.5, 77.2%, 51.5%)" stroke-width="1.5"></path><path d="M1410.07 673.73L1410.07 673.73" stroke="hsl(228.5, 77.2%, 51.5%)" stroke-width="1.5"></path><path d="M1410.07 673.73L1571.09 653.17" stroke="hsl(228.5, 77.2%, 51.5%)" stroke-width="1.5"></path><path d="M1410.07 673.73L1562.47 493.95" stroke="hsl(228.5, 77.2%, 51.5%)" stroke-width="1.5"></path><path d="M76.7 488L76.7 488" stroke="hsl(228.5, 77.2%, 51.5%)" stroke-width="1.5"></path><path d="M76.7 488L212.88 489.72" stroke="hsl(228.5, 77.2%, 51.5%)" stroke-width="1.5"></path><path d="M76.7 488L200.64 648.44" stroke="hsl(228.5, 77.2%, 51.5%)" stroke-width="1.5"></path><path d="M212.88 489.72L212.88 489.72" stroke="hsl(228.5, 77.2%, 51.5%)" stroke-width="1.5"></path><path d="M212.88 489.72L200.64 648.44" stroke="hsl(228.5, 77.2%, 51.5%)" stroke-width="1.5"></path><path d="M212.88 489.72L402.16 519.37" stroke="hsl(228.5, 77.2%, 51.5%)" stroke-width="1.5"></path><path d="M200.64 648.44L200.64 648.44" stroke="hsl(228.5, 77.2%, 51.5%)" stroke-width="1.5"></path><path d="M200.64 648.44L363.88 695.81" stroke="hsl(228.5, 77.2%, 51.5%)" stroke-width="1.5"></path><path d="M402.16 519.37L402.16 519.37" stroke="hsl(228.5, 77.2%, 51.5%)" stroke-width="1.5"></path><path d="M402.16 519.37L363.88 695.81" stroke="hsl(228.5, 77.2%, 51.5%)" stroke-width="1.5"></path><path d="M402.16 519.37L550.1 399.89" stroke="hsl(228.5, 77.2%, 51.5%)" stroke-width="1.5"></path><path d="M402.16 519.37L489.97 705.17" stroke="hsl(228.5, 77.2%, 51.5%)" stroke-width="1.5"></path><path d="M363.88 695.81L363.88 695.81" stroke="hsl(228.5, 77.2%, 51.5%)" stroke-width="1.5"></path><path d="M363.88 695.81L489.97 705.17" stroke="hsl(228.5, 77.2%, 51.5%)" stroke-width="1.5"></path><path d="M489.97 705.17L489.97 705.17" stroke="hsl(228.5, 77.2%, 51.5%)" stroke-width="1.5"></path><path d="M489.97 705.17L200.64 648.44" stroke="hsl(228.5, 77.2%, 51.5%)" stroke-width="1.5"></path><path d="M670.47 380.35L670.47 380.35" stroke="hsl(228.5, 77.2%, 51.5%)" stroke-width="1.5"></path><path d="M670.47 380.35L820.18 385.89" stroke="hsl(228.5, 77.2%, 51.5%)" stroke-width="1.5"></path><path d="M670.47 380.35L787.57 537.1" stroke="hsl(228.5, 77.2%, 51.5%)" stroke-width="1.5"></path><path d="M670.47 380.35L656.92 679.32" stroke="hsl(228.5, 77.2%, 51.5%)" stroke-width="1.5"></path><path d="M670.47 380.35L402.16 519.37" stroke="hsl(228.5, 77.2%, 51.5%)" stroke-width="1.5"></path><path d="M820.18 385.89L820.18 385.89" stroke="hsl(228.5, 77.2%, 51.5%)" stroke-width="1.5"></path><path d="M820.18 385.89L787.57 537.1" stroke="hsl(228.5, 77.2%, 51.5%)" stroke-width="1.5"></path><path d="M820.18 385.89L982.21 379.99" stroke="hsl(228.5, 77.2%, 51.5%)" stroke-width="1.5"></path><path d="M820.18 385.89L981.06 523.86" stroke="hsl(228.5, 77.2%, 51.5%)" stroke-width="1.5"></path><path d="M820.18 385.89L995.49 236.66" stroke="hsl(228.5, 77.2%, 51.5%)" stroke-width="1.5"></path><path d="M787.57 537.1L787.57 537.1" stroke="hsl(228.5, 77.2%, 51.5%)" stroke-width="1.5"></path><path d="M787.57 537.1L825.87 673.9" stroke="hsl(228.5, 77.2%, 51.5%)" stroke-width="1.5"></path><path d="M825.87 673.9L825.87 673.9" stroke="hsl(228.5, 77.2%, 51.5%)" stroke-width="1.5"></path><path d="M825.87 673.9L941.41 645.64" stroke="hsl(228.5, 77.2%, 51.5%)" stroke-width="1.5"></path><path d="M825.87 673.9L981.06 523.86" stroke="hsl(228.5, 77.2%, 51.5%)" stroke-width="1.5"></path><path d="M995.49 236.66L995.49 236.66" stroke="hsl(228.5, 77.2%, 51.5%)" stroke-width="1.5"></path><path d="M995.49 236.66L1098.3 217.68" stroke="hsl(228.5, 77.2%, 51.5%)" stroke-width="1.5"></path><path d="M995.49 236.66L982.21 379.99" stroke="hsl(228.5, 77.2%, 51.5%)" stroke-width="1.5"></path><path d="M995.49 236.66L1118.02 404.87" stroke="hsl(228.5, 77.2%, 51.5%)" stroke-width="1.5"></path><path d="M982.21 379.99L982.21 379.99" stroke="hsl(228.5, 77.2%, 51.5%)" stroke-width="1.5"></path><path d="M982.21 379.99L1118.02 404.87" stroke="hsl(228.5, 77.2%, 51.5%)" stroke-width="1.5"></path><path d="M982.21 379.99L981.06 523.86" stroke="hsl(228.5, 77.2%, 51.5%)" stroke-width="1.5"></path><path d="M982.21 379.99L1093.08 524.45" stroke="hsl(228.5, 77.2%, 51.5%)" stroke-width="1.5"></path><path d="M981.06 523.86L981.06 523.86" stroke="hsl(228.5, 77.2%, 51.5%)" stroke-width="1.5"></path><path d="M981.06 523.86L1093.08 524.45" stroke="hsl(228.5, 77.2%, 51.5%)" stroke-width="1.5"></path><path d="M981.06 523.86L941.41 645.64" stroke="hsl(228.5, 77.2%, 51.5%)" stroke-width="1.5"></path><path d="M981.06 523.86L1118.02 404.87" stroke="hsl(228.5, 77.2%, 51.5%)" stroke-width="1.5"></path><path d="M981.06 523.86L1115.32 657.94" stroke="hsl(228.5, 77.2%, 51.5%)" stroke-width="1.5"></path><path d="M941.41 645.64L941.41 645.64" stroke="hsl(228.5, 77.2%, 51.5%)" stroke-width="1.5"></path><path d="M941.41 645.64L1115.32 657.94" stroke="hsl(228.5, 77.2%, 51.5%)" stroke-width="1.5"></path><path d="M941.41 645.64L787.57 537.1" stroke="hsl(228.5, 77.2%, 51.5%)" stroke-width="1.5"></path><path d="M941.41 645.64L1093.08 524.45" stroke="hsl(228.5, 77.2%, 51.5%)" stroke-width="1.5"></path><path d="M941.41 645.64L982.21 379.99" stroke="hsl(228.5, 77.2%, 51.5%)" stroke-width="1.5"></path><path d="M1098.3 217.68L1098.3 217.68" stroke="hsl(228.5, 77.2%, 51.5%)" stroke-width="1.5"></path><path d="M1098.3 217.68L1248.89 248.65" stroke="hsl(228.5, 77.2%, 51.5%)" stroke-width="1.5"></path><path d="M1098.3 217.68L1118.02 404.87" stroke="hsl(228.5, 77.2%, 51.5%)" stroke-width="1.5"></path><path d="M1098.3 217.68L982.21 379.99" stroke="hsl(228.5, 77.2%, 51.5%)" stroke-width="1.5"></path><path d="M1098.3 217.68L1264.52 92.78" stroke="hsl(228.5, 77.2%, 51.5%)" stroke-width="1.5"></path><path d="M1118.02 404.87L1118.02 404.87" stroke="hsl(228.5, 77.2%, 51.5%)" stroke-width="1.5"></path><path d="M1118.02 404.87L1093.08 524.45" stroke="hsl(228.5, 77.2%, 51.5%)" stroke-width="1.5"></path><path d="M1118.02 404.87L1256.2 365.91" stroke="hsl(228.5, 77.2%, 51.5%)" stroke-width="1.5"></path><path d="M1118.02 404.87L1250.45 499.36" stroke="hsl(228.5, 77.2%, 51.5%)" stroke-width="1.5"></path><path d="M1093.08 524.45L1093.08 524.45" stroke="hsl(228.5, 77.2%, 51.5%)" stroke-width="1.5"></path><path d="M1093.08 524.45L1115.32 657.94" stroke="hsl(228.5, 77.2%, 51.5%)" stroke-width="1.5"></path><path d="M1093.08 524.45L1250.45 499.36" stroke="hsl(228.5, 77.2%, 51.5%)" stroke-width="1.5"></path><path d="M1115.32 657.94L1115.32 657.94" stroke="hsl(228.5, 77.2%, 51.5%)" stroke-width="1.5"></path><path d="M1115.32 657.94L1250.45 499.36" stroke="hsl(228.5, 77.2%, 51.5%)" stroke-width="1.5"></path><path d="M1115.32 657.94L1118.02 404.87" stroke="hsl(228.5, 77.2%, 51.5%)" stroke-width="1.5"></path><path d="M1115.32 657.94L825.87 673.9" stroke="hsl(228.5, 77.2%, 51.5%)" stroke-width="1.5"></path><path d="M1301.3 -85.82L1301.3 -85.82" stroke="hsl(228.5, 77.2%, 51.5%)" stroke-width="1.5"></path><path d="M1301.3 -85.82L1264.52 92.78" stroke="hsl(228.5, 77.2%, 51.5%)" stroke-width="1.5"></path><path d="M1264.52 92.78L1264.52 92.78" stroke="hsl(228.5, 77.2%, 51.5%)" stroke-width="1.5"></path><path d="M1264.52 92.78L1248.89 248.65" stroke="hsl(228.5, 77.2%, 51.5%)" stroke-width="1.5"></path><path d="M1264.52 92.78L1421.47 105.88" stroke="hsl(228.5, 77.2%, 51.5%)" stroke-width="1.5"></path><path d="M1248.89 248.65L1248.89 248.65" stroke="hsl(228.5, 77.2%, 51.5%)" stroke-width="1.5"></path><path d="M1248.89 248.65L1256.2 365.91" stroke="hsl(228.5, 77.2%, 51.5%)" stroke-width="1.5"></path><path d="M1248.89 248.65L1393.73 234.43" stroke="hsl(228.5, 77.2%, 51.5%)" stroke-width="1.5"></path><path d="M1256.2 365.91L1256.2 365.91" stroke="hsl(228.5, 77.2%, 51.5%)" stroke-width="1.5"></path><path d="M1256.2 365.91L1250.45 499.36" stroke="hsl(228.5, 77.2%, 51.5%)" stroke-width="1.5"></path><path d="M1256.2 365.91L1435.6 380.91" stroke="hsl(228.5, 77.2%, 51.5%)" stroke-width="1.5"></path><path d="M1250.45 499.36L1250.45 499.36" stroke="hsl(228.5, 77.2%, 51.5%)" stroke-width="1.5"></path><path d="M1250.45 499.36L1411.61 521.48" stroke="hsl(228.5, 77.2%, 51.5%)" stroke-width="1.5"></path><path d="M1421.47 105.88L1421.47 105.88" stroke="hsl(228.5, 77.2%, 51.5%)" stroke-width="1.5"></path><path d="M1421.47 105.88L1393.73 234.43" stroke="hsl(228.5, 77.2%, 51.5%)" stroke-width="1.5"></path><path d="M1421.47 105.88L1548.74 60.48" stroke="hsl(228.5, 77.2%, 51.5%)" stroke-width="1.5"></path><path d="M1421.47 105.88L1540.98 221.29" stroke="hsl(228.5, 77.2%, 51.5%)" stroke-width="1.5"></path><path d="M1421.47 105.88L1540.28 -60.62" stroke="hsl(228.5, 77.2%, 51.5%)" stroke-width="1.5"></path><path d="M1393.73 234.43L1393.73 234.43" stroke="hsl(228.5, 77.2%, 51.5%)" stroke-width="1.5"></path><path d="M1393.73 234.43L1540.98 221.29" stroke="hsl(228.5, 77.2%, 51.5%)" stroke-width="1.5"></path><path d="M1393.73 234.43L1435.6 380.91" stroke="hsl(228.5, 77.2%, 51.5%)" stroke-width="1.5"></path><path d="M1435.6 380.91L1435.6 380.91" stroke="hsl(228.5, 77.2%, 51.5%)" stroke-width="1.5"></path><path d="M1435.6 380.91L1593.22 410.37" stroke="hsl(228.5, 77.2%, 51.5%)" stroke-width="1.5"></path><path d="M1435.6 380.91L1562.47 493.95" stroke="hsl(228.5, 77.2%, 51.5%)" stroke-width="1.5"></path><path d="M1540.28 -60.62L1540.28 -60.62" stroke="hsl(228.5, 77.2%, 51.5%)" stroke-width="1.5"></path><path d="M1540.28 -60.62L1548.74 60.48" stroke="hsl(228.5, 77.2%, 51.5%)" stroke-width="1.5"></path><path d="M1540.28 -60.62L1301.3 -85.82" stroke="hsl(228.5, 77.2%, 51.5%)" stroke-width="1.5"></path><path d="M1540.28 -60.62L1540.98 221.29" stroke="hsl(228.5, 77.2%, 51.5%)" stroke-width="1.5"></path><path d="M1540.28 -60.62L1264.52 92.78" stroke="hsl(228.5, 77.2%, 51.5%)" stroke-width="1.5"></path><path d="M1540.28 -60.62L1393.73 234.43" stroke="hsl(228.5, 77.2%, 51.5%)" stroke-width="1.5"></path><path d="M1548.74 60.48L1548.74 60.48" stroke="hsl(228.5, 77.2%, 51.5%)" stroke-width="1.5"></path><path d="M1548.74 60.48L1540.98 221.29" stroke="hsl(228.5, 77.2%, 51.5%)" stroke-width="1.5"></path><path d="M1548.74 60.48L1393.73 234.43" stroke="hsl(228.5, 77.2%, 51.5%)" stroke-width="1.5"></path><path d="M1548.74 60.48L1264.52 92.78" stroke="hsl(228.5, 77.2%, 51.5%)" stroke-width="1.5"></path><path d="M1540.98 221.29L1540.98 221.29" stroke="hsl(228.5, 77.2%, 51.5%)" stroke-width="1.5"></path><path d="M1593.22 410.37L1593.22 410.37" stroke="hsl(228.5, 77.2%, 51.5%)" stroke-width="1.5"></path><path d="M1593.22 410.37L1562.47 493.95" stroke="hsl(228.5, 77.2%, 51.5%)" stroke-width="1.5"></path><path d="M1593.22 410.37L1540.98 221.29" stroke="hsl(228.5, 77.2%, 51.5%)" stroke-width="1.5"></path><path d="M1593.22 410.37L1411.61 521.48" stroke="hsl(228.5, 77.2%, 51.5%)" stroke-width="1.5"></path><path d="M1562.47 493.95L1562.47 493.95" stroke="hsl(228.5, 77.2%, 51.5%)" stroke-width="1.5"></path><path d="M1562.47 493.95L1411.61 521.48" stroke="hsl(228.5, 77.2%, 51.5%)" stroke-width="1.5"></path><path d="M1562.47 493.95L1571.09 653.17" stroke="hsl(228.5, 77.2%, 51.5%)" stroke-width="1.5"></path><path d="M1562.47 493.95L1540.98 221.29" stroke="hsl(228.5, 77.2%, 51.5%)" stroke-width="1.5"></path><path d="M1571.09 653.17L1571.09 653.17" stroke="hsl(228.5, 77.2%, 51.5%)" stroke-width="1.5"></path><path d="M1571.09 653.17L1411.61 521.48" stroke="hsl(228.5, 77.2%, 51.5%)" stroke-width="1.5"></path><path d="M1571.09 653.17L1593.22 410.37" stroke="hsl(228.5, 77.2%, 51.5%)" stroke-width="1.5"></path><path d="M1571.09 653.17L1435.6 380.91" stroke="hsl(228.5, 77.2%, 51.5%)" stroke-width="1.5"></path><path d="M1571.09 653.17L1250.45 499.36" stroke="hsl(228.5, 77.2%, 51.5%)" stroke-width="1.5"></path><circle r="25" cx="-62.1" cy="522.2" fill="url(&quot;#SvgjsRadialGradient1001&quot;)"></circle><circle r="25" cx="-89" cy="659.94" fill="url(&quot;#SvgjsRadialGradient1001&quot;)"></circle><circle r="25" cx="74.52" cy="639.93" fill="url(&quot;#SvgjsRadialGradient1001&quot;)"></circle><circle r="25" cx="550.1" cy="399.89" fill="url(&quot;#SvgjsRadialGradient1001&quot;)"></circle><circle r="25" cx="489.65" cy="496.8" fill="url(&quot;#SvgjsRadialGradient1001&quot;)"></circle><circle r="25" cx="656.92" cy="679.32" fill="url(&quot;#SvgjsRadialGradient1001&quot;)"></circle><circle r="25" cx="1411.61" cy="521.48" fill="url(&quot;#SvgjsRadialGradient1001&quot;)"></circle><circle r="25" cx="1410.07" cy="673.73" fill="url(&quot;#SvgjsRadialGradient1001&quot;)"></circle><circle r="5" cx="76.7" cy="488" fill="#8b9ad9"></circle><circle r="5" cx="212.88" cy="489.72" fill="#8b9ad9"></circle><circle r="5" cx="200.64" cy="648.44" fill="#8b9ad9"></circle><circle r="5" cx="402.16" cy="519.37" fill="#8b9ad9"></circle><circle r="5" cx="363.88" cy="695.81" fill="#8b9ad9"></circle><circle r="5" cx="489.97" cy="705.17" fill="#8b9ad9"></circle><circle r="5" cx="670.47" cy="380.35" fill="#8b9ad9"></circle><circle r="5" cx="820.18" cy="385.89" fill="#8b9ad9"></circle><circle r="5" cx="787.57" cy="537.1" fill="#8b9ad9"></circle><circle r="5" cx="825.87" cy="673.9" fill="#8b9ad9"></circle><circle r="5" cx="995.49" cy="236.66" fill="#8b9ad9"></circle><circle r="5" cx="982.21" cy="379.99" fill="#8b9ad9"></circle><circle r="5" cx="981.06" cy="523.86" fill="#8b9ad9"></circle><circle r="5" cx="941.41" cy="645.64" fill="#8b9ad9"></circle><circle r="5" cx="1098.3" cy="217.68" fill="#8b9ad9"></circle><circle r="5" cx="1118.02" cy="404.87" fill="#8b9ad9"></circle><circle r="5" cx="1093.08" cy="524.45" fill="#8b9ad9"></circle><circle r="5" cx="1115.32" cy="657.94" fill="#8b9ad9"></circle><circle r="5" cx="1301.3" cy="-85.82" fill="#8b9ad9"></circle><circle r="5" cx="1264.52" cy="92.78" fill="#8b9ad9"></circle><circle r="5" cx="1248.89" cy="248.65" fill="#8b9ad9"></circle><circle r="5" cx="1256.2" cy="365.91" fill="#8b9ad9"></circle><circle r="5" cx="1250.45" cy="499.36" fill="#8b9ad9"></circle><circle r="5" cx="1421.47" cy="105.88" fill="#8b9ad9"></circle><circle r="5" cx="1393.73" cy="234.43" fill="#8b9ad9"></circle><circle r="5" cx="1435.6" cy="380.91" fill="#8b9ad9"></circle><circle r="5" cx="1540.28" cy="-60.62" fill="#8b9ad9"></circle><circle r="5" cx="1548.74" cy="60.48" fill="#8b9ad9"></circle><circle r="5" cx="1540.98" cy="221.29" fill="#8b9ad9"></circle><circle r="5" cx="1593.22" cy="410.37" fill="#8b9ad9"></circle><circle r="5" cx="1562.47" cy="493.95" fill="#8b9ad9"></circle><circle r="5" cx="1571.09" cy="653.17" fill="#8b9ad9"></circle></g><defs><mask id="SvgjsMask1000"><rect width="1440" height="560" fill="#ffffff"></rect></mask><radialGradient id="SvgjsRadialGradient1001"><stop stop-color="#ffffff" offset="0.1"></stop><stop stop-color="#1735b3" offset="0.2"></stop><stop stop-color="rgba(23, 53, 179, 0)" offset="1"></stop></radialGradient></defs></svg>